<svg xmlns="http://www.w3.org/2000/svg" xmlns:xlink="http://www.w3.org/1999/xlink" id="Layer_1" width="100" height="100" x="0" y="0" enable-background="new 0 0 100 100" version="1.1" viewBox="0 0 100 100" xml:space="preserve"><g><path fill="#EFD700" d="M85,33.758c0,18.572-15.056,33.628-33.628,33.628c-10.306,0-19.53-4.636-25.698-11.937 c-4.947-5.855-7.93-13.425-7.93-21.691c0-18.572,15.056-33.628,33.628-33.628S85,15.185,85,33.758z"/><path fill="#EFD700" d="M23.197,51.632c0,0,10.906,11.512,12.724,18.177c1.818,6.665,4.241,14.542,6.059,19.995 c1.818,5.453,6.059,9.089,9.695,9.695c3.635,0.606-1.818-50.897-1.818-50.897L23.197,51.632z"/><path fill="#EFD700" d="M79.585,51.632c0,0-10.906,11.512-12.724,18.177c-1.818,6.665-4.241,14.542-6.059,19.995 c-1.818,5.453-6.059,9.089-9.695,9.695c-3.635,0.606,1.818-50.897,1.818-50.897L79.585,51.632z"/></g></svg>