<svg xmlns="http://www.w3.org/2000/svg" xmlns:xlink="http://www.w3.org/1999/xlink" id="Layer_1" width="81.938" height="43.061" x="0" y="0" enable-background="new 0 0 81.938 43.061" version="1.1" viewBox="0 0 81.938 43.061" xml:space="preserve"><rect width="8.332" height="13.889" x="34.719" y="29.172" fill="#1DB0E6"/><polygon fill="#1DB0E6" points="41.664 23.609 41.664 26.387 58.328 26.387 69.439 15.277 69.439 12.498 52.773 12.498"/><polygon fill="#1DB0E6" points="65.273 0 55.551 9.722 72.217 9.722 72.217 12.498 81.938 2.778 81.938 0"/><polygon fill="#1DB0E6" points="51.383 9.722 61.105 0 44.441 0 34.719 9.722"/><polygon fill="#1DB0E6" points="31.942 12.498 20.832 23.609 20.832 26.387 37.497 26.387 37.497 23.609 37.497 23.609 48.607 12.498"/><polygon fill="#1DB0E6" points="40.275 0 23.61 0 13.888 9.722 30.553 9.722"/><polygon fill="#1DB0E6" points="11.111 12.498 0 23.609 0 26.387 16.666 26.387 16.666 23.609 27.776 12.498"/></svg>