<svg xmlns="http://www.w3.org/2000/svg" xmlns:xlink="http://www.w3.org/1999/xlink" id="Layer_1" x="0" y="0" version="1.1" viewBox="0 0 300 300" xml:space="preserve" style="enable-background:new 0 0 300 300"><style type="text/css">.st0,.st1{fill:none;stroke:#41ceca;stroke-width:11;stroke-miterlimit:10}.st1{fill:#fff}</style><g><g><polyline points="215.3 244.6 274.3 244.6 274.3 88.2 215.3 88.2" class="st0"/><g><line x1="215.3" x2="256.5" y1="107.7" y2="107.7" class="st0"/><line x1="215.3" x2="256.5" y1="127.3" y2="127.3" class="st0"/><line x1="215.3" x2="256.5" y1="146.9" y2="146.9" class="st0"/><line x1="215.3" x2="256.5" y1="166.4" y2="166.4" class="st0"/><line x1="215.3" x2="256.5" y1="186" y2="186" class="st0"/><line x1="215.3" x2="256.5" y1="205.5" y2="205.5" class="st0"/></g></g><g><polyline points="93.1 244.6 34 244.6 34 88.2 93.1 88.2" class="st0"/><g><line x1="93.1" x2="51.8" y1="107.7" y2="107.7" class="st0"/><line x1="93.1" x2="51.8" y1="127.3" y2="127.3" class="st0"/><line x1="93.1" x2="51.8" y1="146.9" y2="146.9" class="st0"/><line x1="93.1" x2="51.8" y1="166.4" y2="166.4" class="st0"/><line x1="93.1" x2="51.8" y1="186" y2="186" class="st0"/><line x1="93.1" x2="51.8" y1="205.5" y2="205.5" class="st0"/></g></g><rect width="122.2" height="195.5" x="93.1" y="49.1" class="st1"/><line x1="117.5" x2="190.8" y1="73.5" y2="73.5" class="st0"/><line x1="117.5" x2="190.8" y1="98" y2="98" class="st0"/><line x1="117.5" x2="190.8" y1="122.4" y2="122.4" class="st0"/><line x1="117.5" x2="190.8" y1="146.9" y2="146.9" class="st0"/><line x1="117.5" x2="190.8" y1="171.3" y2="171.3" class="st0"/><line x1="117.5" x2="190.8" y1="195.7" y2="195.7" class="st0"/><polyline points="166.4 244.6 166.4 220.2 141.9 220.2 141.9 244.6" class="st0"/><path d="M296.1,244.6" class="st0"/><path d="M2.8,244.6" class="st0"/><path d="M296.1,244.6" class="st0"/><path d="M2.8,244.6" class="st0"/><line x1="2.8" x2="296.1" y1="244.6" y2="244.6" class="st0"/></g></svg>